<svg width="24" height="20" viewBox="0 0 24 20" fill="none" xmlns="http://www.w3.org/2000/svg">
<path d="M23.5 2.875V17.125C23.5 17.7781 23.275 18.3374 22.8249 18.8029C22.3741 19.2676 21.8325 19.5 21.2 19.5H2.8C2.1675 19.5 1.62623 19.2676 1.1762 18.8029C0.7254 18.3374 0.5 17.7781 0.5 17.125V2.875C0.5 2.22187 0.7254 1.66296 1.1762 1.19825C1.62623 0.73275 2.1675 0.5 2.8 0.5H21.2C21.8325 0.5 22.3741 0.73275 22.8249 1.19825C23.275 1.66296 23.5 2.22187 23.5 2.875ZM2.8 5.25H21.2V2.875H2.8V5.25ZM2.8 10V17.125H21.2V10H2.8ZM2.8 17.125V2.875V17.125Z" fill="black"/>
</svg>
