<svg width="27" height="27" viewBox="0 0 27 27" fill="none" xmlns="http://www.w3.org/2000/svg">
<path d="M19.77 24.9L16.755 19.68C18.225 18.6 19.245 16.92 19.455 15H25.5C25.3761 16.981 24.7942 18.9063 23.7999 20.6242C22.8056 22.3421 21.4261 23.8058 19.77 24.9ZM15 6.045V0C21.45 0.39 26.61 5.55 27 12H20.955C20.7875 10.4782 20.1063 9.05892 19.0237 7.97634C17.9411 6.89375 16.5218 6.21252 15 6.045ZM6.00003 14.25C6.00003 15.21 6.19503 16.125 6.57003 16.95L1.35004 19.965C0.457281 18.1925 -0.00521876 16.2346 4.44221e-05 14.25C4.44221e-05 7.455 5.31003 1.905 12 1.5V7.545C8.62503 7.92 6.00003 10.77 6.00003 14.25ZM12.75 27C8.29503 27 4.38004 24.75 2.10004 21.27L7.32003 18.255C7.94455 19.1083 8.76204 19.8018 9.70574 20.2789C10.6494 20.7559 11.6926 21.003 12.75 21C13.71 21 14.625 20.805 15.45 20.43L18.465 25.65C16.74 26.52 14.805 27 12.75 27Z" fill="black"/>
</svg>
