<svg width="25" height="25" viewBox="0 0 25 25" fill="none" xmlns="http://www.w3.org/2000/svg">
<path d="M12.5 0.75C6.01048 0.75 0.75 6.01048 0.75 12.5C0.75 18.9895 6.01048 24.25 12.5 24.25C18.9895 24.25 24.25 18.9895 24.25 12.5C24.25 6.01048 18.9895 0.75 12.5 0.75Z" stroke="black" stroke-width="1.5" stroke-linecap="round" stroke-linejoin="round"/>
<path d="M3.4184 19.9566C3.4184 19.9566 6.03747 16.6125 12.5 16.6125C18.9625 16.6125 21.5827 19.9566 21.5827 19.9566M12.5 12.5C13.4349 12.5 14.3315 12.1286 14.9925 11.4676C15.6536 10.8065 16.025 9.9099 16.025 8.97501C16.025 8.04012 15.6536 7.14353 14.9925 6.48246C14.3315 5.8214 13.4349 5.45001 12.5 5.45001C11.5651 5.45001 10.6685 5.8214 10.0074 6.48246C9.34635 7.14353 8.97497 8.04012 8.97497 8.97501C8.97497 9.9099 9.34635 10.8065 10.0074 11.4676C10.6685 12.1286 11.5651 12.5 12.5 12.5Z" stroke="black" stroke-width="1.5" stroke-linecap="round" stroke-linejoin="round"/>
</svg>
